<svg
  xmlns="http://www.w3.org/2000/svg" viewBox="0 0 123 23">
    <path d="m67.314 1.12l-4.835 6.778-4.898-6.778h-0.055l-4.916 9.116v11.8h4.66l0-12.952 5.036 6.419 0.026 0.043h0.201l5.094-6.52v13.011h4.691v-20.916h-5.003zm-41.022 16.863v-4.452h8.572v-4.053h-8.572v-4.304h9.746v-4.053h-14.501v20.916h8.996l2.185-4.053h-6.426zm84.243-6.642l6.403-10.221h-5.326l-3.786 6.63-3.723-6.63h-5.452l6.339 10.28-6.625 10.636h5.325l4.04-7.017 4.009 7.017h5.452l-6.656-10.695zm-22.044 2.226h-4.603l2.316-6.403 2.286 6.403zm-4.477-12.565l-8.034 21.034h4.831l1.619-4.505h7.52l1.651 4.505h4.957l-8.034-21.034h-4.51zm-72.394 7.198v0.03c0 1.895-1.319 3.026-3.527 3.026h-3.305v-6.082h3.21c2.37 0 3.623 1.047 3.623 3.026zm4.818-0.089v-0.119c0-2.02-0.657-3.701-1.9-4.861-1.409-1.315-3.517-2.01-6.097-2.01h-8.441v20.916h4.787v-6.816h2.744l4.095 6.816h5.482l-4.759-7.751c1.888-0.804 4.089-2.523 4.089-6.174z" fill="#DC1C2E"/>
    <polyline points="47.293 1.002 36.059 22.036 41.85 22.036 53.087 1.002 47.293 1.002" fill="#004E9B"/>
    <path d="m119.82 1.927h0.261c0.298 0 0.55-0.107 0.55-0.381 0-0.196-0.144-0.391-0.55-0.391-0.117 0-0.197 0.01-0.261 0.018v0.755zm0 1.235h-0.359v-2.23c0.188-0.028 0.368-0.053 0.638-0.053 0.343 0 0.568 0.072 0.703 0.169 0.136 0.098 0.207 0.248 0.207 0.461 0 0.294-0.197 0.472-0.442 0.543v0.018c0.199 0.036 0.333 0.212 0.378 0.542 0.055 0.347 0.108 0.481 0.145 0.551h-0.379c-0.054-0.07-0.108-0.276-0.153-0.569-0.054-0.284-0.197-0.391-0.486-0.391h-0.252v0.96zm0.379-2.851c-0.892 0-1.62 0.757-1.62 1.688 0 0.95 0.728 1.697 1.629 1.697 0.901 0.007 1.621-0.748 1.621-1.689 0-0.939-0.72-1.696-1.621-1.696h-0.009zm0.009-0.311c1.109 0 1.99 0.889 1.99 1.999 0 1.127-0.881 2.007-1.999 2.007-1.108 0-2.008-0.88-2.008-2.007 0-1.11 0.9-1.999 2.008-1.999h0.009z" fill="#C62A31"/>
</svg>
